<svg width="259" height="438" viewBox="0 0 259 438" fill="none" xmlns="http://www.w3.org/2000/svg">
<path d="M229.663 197.406C248.095 185.066 259.105 164.665 259.105 142.822C259.105 120.152 247.876 99.4466 229.059 87.4415L108.344 10.3299C97.9231 3.68011 84.8369 0.0151367 71.4969 0.0151367C59.3447 0.0151367 46.9946 2.96438 37.6241 8.10143C14.7816 20.6243 0 43.2385 0 65.7156V372.315C0 394.792 14.7664 417.406 37.6241 429.929C46.9997 435.071 59.3498 438.015 71.4969 438.015C84.8369 438.015 97.9231 434.355 108.355 427.695L229.039 350.568C247.856 338.563 259.095 317.858 259.095 295.178C259.095 273.35 248.095 252.934 229.653 240.594L195.643 219.005L229.227 197.685L229.663 197.406ZM39.8779 167.269L121.314 219L39.8779 270.736V167.269ZM207.653 273.868C214.897 278.797 219.222 286.756 219.222 295.188C219.222 304.178 214.872 312.315 207.597 316.959L86.8928 394.086C82.8573 396.665 77.2482 398.147 71.4969 398.147C66.167 398.147 60.2534 396.868 56.7762 394.964C46.9794 389.599 39.8677 380.071 39.8677 372.32V318.005L158.496 242.619L207.653 273.868ZM207.653 164.178L158.496 195.381L39.8779 120.03V65.7156C39.8779 57.9644 46.9844 48.4568 56.7864 43.071C60.2534 41.1674 66.167 39.8933 71.5071 39.8933C77.2583 39.8933 82.8725 41.3705 86.8928 43.9542L207.582 121.041C214.861 125.685 219.212 133.822 219.212 142.812C219.222 151.264 214.897 159.223 207.648 164.137L207.653 164.178Z" fill="#00DC23"/>
</svg>