<svg width="2080" height="438" viewBox="0 0 2080 438" fill="none" xmlns="http://www.w3.org/2000/svg">
<g clip-path="url(#clip0_1_2)">
<path d="M467.113 156.213C454.58 156.213 440.971 158.721 427.012 164.452V69.2131H377.231V322.731C400.149 330.969 425.576 335.985 450.281 336.34C502.925 336.695 549.833 314.137 549.833 246.812C549.833 192.386 515.093 155.858 467.113 156.213ZM456.012 295.873C446.702 296.233 436.677 294.442 425.931 291.579V205.634C437.393 199.188 448.494 196.32 458.519 196.68C481.793 197.756 499.702 215.66 499.702 246.812C499.702 281.903 481.438 295.518 456.012 295.873Z" fill="#1a1a2e"/>
<path d="M675.168 152.635C654.041 152.635 633.985 162.305 626.823 182C623.96 151.203 587.077 151.203 562.006 156.934V187.726C577.742 185.223 579.199 194.533 579.199 208.858V330.635H628.254V237.147C628.254 210.645 646.879 196.32 668.721 196.32C679.822 195.964 690.548 198.827 700.949 205.635L712.046 163.736C702.025 156.213 688.416 152.274 675.168 152.635Z" fill="#1a1a2e"/>
<path d="M870.334 280.477V218.167C870.334 168.391 832.375 153.7 787.969 153.7C764.695 153.7 741.416 157.995 723.152 166.589L729.599 202.401C744.284 194.162 761.111 192.015 779.375 192.015C796.563 192.015 822.349 195.599 822.349 216.726V228.553C809.456 220.315 791.893 217.452 776.512 217.452C738.193 217.452 707.756 237.502 709.548 279.761C710.619 313.066 740.005 333.832 772.213 333.832C794.416 333.832 821.628 325.599 832.014 304.112C832.014 334.909 860.664 336.34 886.806 330.609L886.445 302.69C869.973 303.731 870.334 295.157 870.334 280.477ZM821.273 268.66C819.481 286.934 798.715 295.157 782.243 295.157C770.781 295.157 759.68 289.066 758.604 276.538C756.817 259.706 769.705 250.751 785.461 249.68C797.994 249.68 811.248 252.903 821.273 259.706V268.66Z" fill="#1a1a2e"/>
<path d="M1013.21 154.066C993.155 154.066 967.729 160.873 958.064 180.924C958.064 149.772 917.963 153.711 895.039 157.65V188.802C911.511 188.802 911.511 194.173 911.511 211.36V330.634H961.643V231.771C961.643 207.406 979.191 193.817 998.191 193.817C1016.09 193.817 1031.85 207.066 1030.77 230.7V330.634H1081.27V230.7C1081.25 187.726 1061.91 154.066 1013.21 154.066Z" fill="#1a1a2e"/>
<path d="M1273.9 273.315V68.8376H1223.77V164.452C1163.61 134.731 1101.66 176.269 1101.66 244.31C1101.66 292.65 1129.23 335.985 1181.51 334.909C1204.07 334.548 1223.77 323.091 1233.44 301.604V306.269C1234.51 336.35 1265.31 336.726 1290.38 330.98L1290.02 298.391C1271.76 299.457 1273.9 290.147 1273.9 273.315ZM1225.2 251.112C1225.2 272.239 1211.23 290.503 1189.39 290.503C1162.53 290.503 1151.43 269.02 1151.43 244.31C1151.43 200.98 1189.39 185.934 1225.2 206.706V251.112Z" fill="#1a1a2e"/>
<path d="M1559.66 158.005H1505.59L1488.76 208.498L1475.87 247.888H1474.8L1435.76 161.944H1416.79L1378.11 247.888H1377.4L1364.15 208.498L1345.88 158.005H1292.52V163.736L1363.43 333.117H1385.63L1405.32 292.294L1426.1 245.381L1447.58 290.858L1469.07 333.117H1488.04L1559.66 163.736V158.005Z" fill="#1a1a2e"/>
<path d="M1719.02 280.477V218.167C1719.02 168.391 1681.06 153.7 1636.66 153.7C1613.38 153.7 1590.11 157.995 1571.85 166.589L1578.29 202.401C1592.97 194.162 1609.8 192.015 1628.06 192.015C1645.25 192.015 1671.04 195.599 1671.04 216.726V228.553C1658.15 220.315 1640.58 217.452 1625.2 217.452C1586.89 217.452 1556.45 237.502 1558.24 279.761C1559.31 313.066 1588.69 333.832 1620.91 333.832C1643.1 333.832 1670.32 325.599 1680.7 304.112C1680.7 334.909 1709.35 336.34 1735.5 330.609L1735.13 302.69C1718.66 303.731 1719.02 295.157 1719.02 280.477ZM1669.96 268.66C1668.17 286.934 1647.4 295.157 1630.93 295.157C1619.47 295.157 1608.37 289.066 1607.3 276.538C1605.51 259.706 1618.4 250.751 1634.16 249.68C1646.69 249.68 1659.94 252.903 1669.96 259.706V268.66Z" fill="#1a1a2e"/>
<path d="M1847.94 216.736L1828.24 280.117H1827.16L1804.61 216.376L1781.33 158H1728.69V163.731L1804.25 330.964L1797.82 348.873C1787.8 377.523 1773.12 388.264 1744.82 375.731L1739.45 410.467C1802.12 433.386 1824.68 403.66 1846.52 347.442L1919.57 163.736V158.005H1868.7L1847.94 216.736Z" fill="#1a1a2e"/>
<path d="M1998.33 224.614C1987.23 223.538 1973.63 221.746 1973.63 208.878C1973.63 197.416 1985.81 190.975 2000.12 190.975C2014.44 190.975 2026.62 195.985 2026.98 208.518H2074.25C2076.04 171.995 2040.59 153.371 1999.41 153.371C1957.15 153.371 1925.3 171.645 1925.3 210.31C1925.3 252.208 1970.42 256.863 2005.15 261.518C2017.34 263.31 2029.86 264.741 2029.86 278.706C2029.5 294.107 2014.82 298.401 2000.14 298.401C1985.81 298.761 1972.22 292.31 1971.85 277.99H1921.72C1923.5 323.827 1963.25 335.284 2002.28 335.284C2041.32 335.284 2078.93 319.888 2079.99 278.706C2081.07 232.492 2037.01 229.269 1998.33 224.614Z" fill="#1a1a2e"/>
<path d="M229.663 197.406C248.095 185.066 259.105 164.665 259.105 142.822C259.105 120.152 247.876 99.4466 229.059 87.4415L108.344 10.3299C97.9231 3.68011 84.8369 0.0151367 71.4969 0.0151367C59.3447 0.0151367 46.9946 2.96438 37.6241 8.10143C14.7816 20.6243 0 43.2385 0 65.7156V372.315C0 394.792 14.7664 417.406 37.6241 429.929C46.9997 435.071 59.3498 438.015 71.4969 438.015C84.8369 438.015 97.9231 434.355 108.355 427.695L229.039 350.568C247.856 338.563 259.095 317.858 259.095 295.178C259.095 273.35 248.095 252.934 229.653 240.594L195.643 219.005L229.227 197.685L229.663 197.406ZM39.8779 167.269L121.314 219L39.8779 270.736V167.269ZM207.653 273.868C214.897 278.797 219.222 286.756 219.222 295.188C219.222 304.178 214.872 312.315 207.597 316.959L86.8928 394.086C82.8573 396.665 77.2482 398.147 71.4969 398.147C66.167 398.147 60.2534 396.868 56.7762 394.964C46.9794 389.599 39.8677 380.071 39.8677 372.32V318.005L158.496 242.619L207.653 273.868ZM207.653 164.178L158.496 195.381L39.8779 120.03V65.7156C39.8779 57.9644 46.9844 48.4568 56.7864 43.071C60.2534 41.1674 66.167 39.8933 71.5071 39.8933C77.2583 39.8933 82.8725 41.3705 86.8928 43.9542L207.582 121.041C214.861 125.685 219.212 133.822 219.212 142.812C219.222 151.264 214.897 159.223 207.648 164.137L207.653 164.178Z" fill="#00DC23"/>
</g>
<defs>
<clipPath id="clip0_1_2">
<rect width="2080" height="438" fill="white"/>
</clipPath>
</defs>
</svg>